# xmcd
#
# Track frame offsets: 
#        150
#        22386
#        39585
#        53514
#        67782
#        85092
#        96645
#        112093
#        123624
#        135575
#        152123
#
# Disc length: 2240 seconds
#
# Revision: 0
# Processed by: cddbd v1.5.2PL0 Copyright (c) Steve Scherf et al.
# Submitted via: ExactAudioCopyFreeDBPlugin 1.0
#
DISCID=9708be0b
DTITLE=Kolkhorst - Soziale Romantik
DYEAR=2013
DGENRE=Alternative
TTITLE0=Das ist kein Spiel
TTITLE1=Ein neuer Tag
TTITLE2=Kopf hoch oder zahl
TTITLE3=Mädchen
TTITLE4=Es ist so schön
TTITLE5=Gossenkind
TTITLE6=Fällt ein Licht
TTITLE7=Hamburg City
TTITLE8=Soziale Romantik
TTITLE9=Steppenwolf
TTITLE10=Wenn alle tanzen
EXTD=
EXTT0=
EXTT1=
EXTT2=
EXTT3=
EXTT4=
EXTT5=
EXTT6=
EXTT7=
EXTT8=
EXTT9=
EXTT10=
PLAYORDER=
